<svg id="idoru-yameru" xmlns="http://www.w3.org/2000/svg" viewBox="0 0 400 400">
  <path id="na" d="M75.6 191.8c-2.1.2-4.4.5-6.9 1.1-3.3.7-5.8 1.4-7.6 2.3l-.6.1c-.6 0-1.2-.3-1.7-.9-.5-.6-.7-1.5-.7-2.5v-.7c.1-.3.1-.5.2-.6 0-1.5-.5-2.9-1.6-4.4-1-1.4-2.1-2.9-3.2-4.4 0-.5.4-.8 1.1-.8 1.1 0 2.3.3 3.6 1 1.6.8 2.4 1.6 2.4 2.5 0 .2 0 .6-.1 1.1-.1.5-.1.8-.1 1v3.1c0 .5.1.9.3 1.1.2.2.5.3.9.3l1-.1c1.9-.2 4-.5 6.3-.8 2.4-.4 4.6-.7 6.7-1v-12.5c-.2-.5-.7-1.1-1.5-1.9-1.7-1.6-2.5-2.5-2.5-2.7 0-.4.4-.6 1.3-.6 1.1 0 2.3.4 3.8 1.1 1.6.9 2.4 1.8 2.4 2.7l-.2 1.3v14.7c.6 0 1.4-.2 2.4-.5s1.7-.5 2.1-.5c.6 0 1.2.2 1.7.5s.8.8.8 1.3c0 .4-.1.7-.4 1-.3.3-.6.4-1.2.4-.1 0-.8-.1-2.1-.2s-2.4-.2-3.4-.2c0 1.1-.1 2-.1 2.6-.1 1.9-.3 3.4-.5 4.6-.2 1.2-.5 2.5-.9 3.8-.6 2-1 2.9-1.3 2.9-.1 0-.2-.2-.2-.4v-1.2l-.2-13.6z"/>
  <path id="ai" d="M106.8 179.8c2.6 0 4.5.9 5.8 2.6 1.1 1.4 1.7 3.2 1.7 5.4 0 1.4-.7 2.8-2 4-1.4 1.2-2.9 1.8-4.5 1.8-1.9 0-3.6-.7-5.3-2.2-1.7-1.6-2.6-3.3-2.6-5.2 0-1.8.7-3.3 2.1-4.5 1.5-1.3 3.1-1.9 4.8-1.9zm.1 2.8c-1.1 0-2.2.4-3.1 1.1-.9.7-1.4 1.6-1.4 2.6 0 1.1.6 2.1 1.7 2.9 1.1.8 2.3 1.2 3.7 1.2 1.1 0 2-.4 2.7-1.2.7-.8 1.1-1.7 1.1-2.6 0-1.1-.4-2.1-1.2-2.9-.9-.7-2-1.1-3.5-1.1zm11.4-9.4c-.6-.5-.9-.9-.9-1.3s.4-.6 1.1-.6c1.1 0 2.4.4 3.9 1.1 1.7.8 2.5 1.8 2.5 2.8l-.1 1.5v13.4c.4 0 .9-.1 1.5-.2 1.3-.4 2.1-.6 2.5-.6.8 0 1.5.2 2.2.5.7.3 1 .9 1 1.5 0 .4-.1.7-.4 1-.3.3-.6.4-1 .4-.5 0-1.5-.1-2.7-.4-1.3-.3-2.3-.4-3-.4 0 1.4-.1 2.4-.1 3.2-.1 2.3-.3 4.1-.5 5.3-.2 1.2-.5 2.4-.9 3.8-.5 1.9-1 2.9-1.2 2.9-.1 0-.2-.2-.2-.5s-.1-.8-.1-1.3v-.8c0-1.3 0-2.5-.1-3.8 0-1.3-.1-2.3-.1-3.1V177c-.2-.6-.8-1.3-1.6-2.1-.6-.6-1.1-1.1-1.8-1.7z"/>
  <path id="ii" d="M141.8 179.6c2.6 0 4.5.8 5.8 2.5 1.1 1.4 1.6 3.1 1.6 5.2 0 1.5-.6 2.9-1.8 4.2-1.2 1.3-2.6 1.9-4.3 1.9-2.3 0-4.2-.7-5.7-2.2-1.6-1.4-2.3-3.2-2.3-5.2 0-1.9.7-3.4 2.1-4.6 1.3-1.2 2.8-1.8 4.6-1.8zm.5 2.7c-1.2 0-2.3.4-3.3 1.2-1 .8-1.5 1.7-1.5 2.7 0 1.1.6 2 1.8 2.9 1.2.8 2.4 1.2 3.8 1.2 1.1 0 2-.4 2.8-1.2s1.2-1.6 1.2-2.5c0-1.1-.4-2.1-1.3-3s-2.2-1.3-3.5-1.3zm10.6-9.2c-.5-.5-.7-.8-.7-1.1 0-.4.4-.5 1.1-.5 1 0 2.3.4 3.8 1.2 1.7.9 2.6 1.8 2.6 2.7 0 .2 0 .4-.1.7-.1.3-.1.6-.1.8v16.4c-.1 3-.4 5.2-.7 6.8-.2.9-.5 2.2-1 3.8-.6 2-1.1 3.1-1.3 3.1-.1 0-.1-.1-.1-.3v-.7l-.2-29.3c-.3-.6-.8-1.3-1.5-2-.5-.5-1.1-1-1.8-1.6z"/>
  <path id="dol" d="M167.3 189c-.5-.3-.7-.6-.7-.8 0-.3.5-.5 1.5-.5h1.7c2 0 4.3 0 7.1-.1 2.7-.1 5.3-.1 7.7-.2v-.5c0-.4-.1-.8-.4-1.3-.5-1-.8-1.6-.8-1.7 0-.3.2-.5.7-.5.7 0 1.4.2 2.1.5s1.2.7 1.2 1.2c0 .1 0 .4-.1.7-.1.3-.1.5-.1.7v.7c1 0 2.4-.2 4-.6 1.7-.4 2.8-.6 3.4-.6.6 0 1.3.2 1.9.5.7.4 1 .8 1 1.4 0 .4-.2.8-.6 1.1-.4.3-.9.4-1.5.4-.7 0-1.8 0-3.3-.1-1.5-.1-2.6-.1-3.3-.1-3 0-6 .1-8.9.4-2.9.3-4.9.6-6 1-.2.1-.5.2-.9.4-.2.1-.4.2-.6.2-.5 0-1.3-.3-2.5-.9-.9-.4-1.7-.8-2.6-1.3zm8.7-14.2c-.8-.4-1.1-.8-1.1-1.2 0-.3.2-.5.7-.6.4-.1.9-.1 1.4-.1h.2c2.9 0 5.1-.1 6.8-.4 1.7-.3 2.9-.6 3.8-.9.2-.1.6-.2 1-.4s.7-.2.9-.2c.4 0 .9.3 1.5.9.6.6.9 1.1.9 1.4 0 .5-.5.9-1.4 1.1-.9.2-2.6.4-5.1.7-1.8.2-3.5.4-5.3.6l-.7 3.7c0 .2.1.4.2.5.1.1.4.1.8.1h.7c1.4 0 2.8-.1 4.1-.4 1.3-.3 2.7-.6 4.2-1 .5 0 1 .2 1.5.6.5.4.7.9.7 1.4 0 .7-.4 1.1-1.3 1.3-1.5.2-2.9.3-4.3.5-2.6.3-4.5.6-5.6.9l-.7.1c-.7 0-1.2-.2-1.6-.6-.4-.4-.7-1-.7-1.8l.1-1c.3-.3.5-.8.6-1.4.1-.6.2-1.1.2-1.7 0-.5-.3-.9-.8-1.2-.9-.5-1.4-.7-1.7-.9zm13.5 16.4c.5.3.9.7 1.3 1 .6.5.9 1 .9 1.3 0 .2-.1.6-.4 1.1-.6 1.2-1 2-1 2.4.3.2.5.5.7.7.1.2.2.5.2.8 0 .4-.1.7-.4.9-.2.2-.9.4-1.8.5-1 .1-2.1.2-3.4.3s-2.4.2-3.5.2v2.1c0 .6.1 1 .2 1.1.2.1.6.2 1.2.2h2.5c.5 0 1-.1 1.5-.2s1-.2 1.4-.4.8-.2 1.1-.2c.9 0 1.3.3 1.3.9 0 .4-.1.8-.4 1.2-.3.4-.7.7-1.2 1-.5.4-1.3.6-2.2.8-1 .2-2 .2-3 .2-.7 0-1.6-.4-2.5-1.2-1.1-.9-1.6-1.9-1.6-3v-.6c0-.8-.5-1.6-1.6-2.3-1.1-.7-1.6-1.2-1.6-1.5 0-.4.4-.5 1.2-.5h1c2.4 0 4.4-.1 6-.4.2 0 1.3-.2 3.2-.7V194h-2.2c-.5 0-1.1 0-1.6.1s-1 .2-1.6.4c-.6.3-1.1.5-1.4.6-.3.1-.6.2-.8.2-.6 0-1.6-.4-2.9-1.2-.8-.5-1.1-.8-1.1-1.1 0-.3.4-.4 1.1-.4h3.3c1.3 0 2.2 0 3-.1.7-.1 1.7-.2 2.9-.5.3-.1.6-.2.9-.4.4-.2.6-.4.8-.4h.5z"/>
  <path id="geu" d="M236.2 199.4c-3.1 0-6.2.1-9.2.3s-5.3.6-6.8 1.2c-.3.1-.7.3-1.2.6-.3.2-.6.2-.9.2-.7 0-1.8-.4-3.6-1.3-1.7-.8-2.6-1.5-2.6-2 0-.2.1-.3.4-.4.2-.1.7-.1 1.3-.1h1.4c2.1 0 5-.1 8.9-.3 1.3-.1 3-.1 5.3-.3 3.8-4.4 5.7-7.8 5.7-10.5 0-.9-.5-2-1.4-3.5-1-1.5-1.8-2.2-2.4-2.2-.5 0-1.4.5-2.6 1.6-1.2 1-2.3 1.6-3 1.6-.7 0-1.5-.2-2.5-.5-1.2-.4-1.8-.9-1.8-1.5s1.5-1.6 4.6-3c3.1-1.4 5-2.1 5.7-2.1 1.4 0 3 1.1 4.7 3.4 1.7 2.3 2.5 4.2 2.5 5.8 0 .5 0 .9-.1 1.2s-.3.7-.5 1c-.9 1.3-2 2.6-3.3 4.1-1.4 1.7-2.7 3.1-4 4.4 2.3 0 4.1-.1 5.3-.4 1.1-.3 1.9-.6 2.4-.8.5-.2 1.1-.3 1.7-.3.9 0 1.7.2 2.5.5 1 .5 1.4 1.1 1.4 1.9 0 .4-.1.8-.4 1.1-.3.3-.7.5-1.2.5s-1.2 0-2.1-.1c-2.2 0-3.5-.1-4.2-.1z"/>
  <path id="man" d="M256.9 178.3c.2-.1.4-.3.6-.4.4-.3.7-.4.9-.4.4 0 1.1.4 1.9 1.2.8.8 1.3 1.4 1.3 1.8 0 .1-.1.3-.2.5s-.2.4-.3.7c-.1 1.3-.3 2.4-.4 3.5-.2 1-.5 2.1-.9 3.1.3.2.5.3.7.5.2.2.3.4.3.7 0 .7-.6 1.1-1.9 1.4-.8.2-1.8.2-3.1.2h-1.9c-.5 0-.9-.1-1.4-.2-.4 1-.8 1.4-1.3 1.4-.4 0-.8-.7-1.1-2.1-.3-1.4-.5-2.4-.6-2.9-.2-1.2-.5-2.2-.8-3-.1-.2-.7-1.1-1.8-2.9-.5-.7-.7-1.2-.7-1.3 0-.4.3-.5 1-.5.8 0 1.8.3 2.9.9 1.1.6 1.7 1.3 1.7 2l-.1 1c.1.8.2 1.8.3 3 .1 1.2.2 2.1.3 2.8.9 0 1.8-.1 2.9-.2 1-.2 2-.4 2.9-.6v-7.8h-1c-.5 0-1 .1-1.5.2s-1 .3-1.5.5c-.5 0-1.3-.3-2.2-.8-.5-.3-.8-.6-.8-.8 0-.1.1-.2.3-.3.2-.1.5-.1.9-.1.8 0 1.6-.1 2.6-.4.8-.2 1.5-.4 2-.7zm2.3 23.9c-.1-.3-.6-1-1.5-2.1-1.6-2.1-2.4-3.2-2.4-3.3 0-.4.4-.6 1.3-.6.8 0 1.7.3 2.7.8 1.2.6 1.8 1.3 1.8 2 0 .2 0 .4-.1.8-.1.3-.1.6-.1.7v1.7c0 1.1.5 1.6 1.6 1.6.9 0 2.2-.2 3.9-.6 1.7-.4 2.7-.6 3.3-.6.4 0 .6.1.8.3.1.2.2.4.2.8 0 1-.9 1.8-2.6 2.5-1.4.5-2.7.8-3.8.8-.8 0-1.7-.4-2.6-1.1-1.1-1-1.9-2.2-2.5-3.7zm5.5-28.9c-.7-.5-1-1-1-1.3 0-.4.5-.6 1.5-.6s2.2.4 3.8 1.3c1.6.9 2.3 1.8 2.3 2.7 0 .2 0 .5-.1 1s-.1.9-.1 1.2v10.5h.4c.5 0 1.1-.1 1.9-.4.8-.3 1.4-.4 1.8-.4.7 0 1.4.2 2 .5.6.3.9.8.9 1.4 0 .3-.1.6-.4.9s-.6.4-1.1.4c0 0-1-.2-2.8-.5-.9-.2-1.8-.2-2.7-.2-.5 2.3-1 4.3-1.6 6-.6 1.7-1.1 2.5-1.4 2.5-.2 0-.2-.4-.2-1.1V177c-.2-.6-.7-1.3-1.6-2.2-.4-.4-.9-.9-1.6-1.5z"/>
  <path id="dul" d="M301.5 191.5c.8.3 1.4.6 1.7.8.8.5 1.2 1 1.2 1.4-.2.4-.4.8-.6 1.3-.4 1-.6 1.9-.6 2.7.4.3.6.5.8.7.1.2.2.3.2.5 0 .4-.2.7-.6 1-.4.3-1 .4-1.8.4h-2.4c-.4 0-1.6.1-3.7.3v2.2c0 .5.1.8.2.9.1.1.6.1 1.3.1h1.8s.6-.1 1.1-.2c.5-.1 1.1-.2 1.8-.4.3-.1.7-.1 1.1-.1.9 0 1.3.4 1.3 1.1 0 .8-.6 1.5-1.7 2s-2.8.7-4.9.7c-.9 0-1.9-.4-2.7-1.1-.9-.7-1.3-1.6-1.3-2.6v-1c0-.7-.5-1.3-1.6-1.9-1-.6-1.6-1-1.6-1.4 0-.4.4-.6 1.1-.6 2.2 0 3.8 0 4.7-.1.9-.1 2.4-.4 4.6-1v-3.1c-1 0-2 0-2.8.1-.8.1-1.6.2-2.3.4-.7.3-1.4.6-2 .9-.4 0-1.2-.3-2.4-1-1.2-.6-1.8-1.1-1.8-1.4 0-.3.4-.4 1.2-.4h2.6c2 0 3.9-.1 5.7-.3.3 0 .6-.1.8-.3l.9-.6c-.1-.9-.3-1.6-.4-2.3-.3-.9-.6-1.6-1-2.1-2.1 0-4.5.1-7.1.3-2.6.2-4.4.5-5.5.9-.3.1-.7.3-1.1.5-.3.1-.5.2-.7.2-.5 0-1.6-.4-3.2-1.2s-2.4-1.4-2.4-1.8c0-.3.4-.4 1.2-.4h6.7c4.5 0 8.1-.1 10.7-.4 2.6-.3 4.6-.6 6-1.1.5-.1 1-.3 1.5-.4.5-.1.9-.2 1.3-.2.7 0 1.4.2 2 .6.7.4 1 .9 1 1.6 0 .4-.2.8-.5 1.1-.3.3-.7.4-1.2.4-.3 0-.7 0-1.2-.1-1.2-.2-2.7-.3-4.5-.3 0 .1.1.3.2.6.2.6.4 1 .4 1.1 0 .3-.2.8-.6 1.6-.3.6-.6 1.1-.9 1.4zm-12.8-17.1c-.6-.3-.9-.6-.9-.9 0-.3.2-.5.6-.7.4-.2.9-.2 1.6-.2 2.6 0 4.5-.1 5.7-.2 1.2-.1 2.6-.5 4.2-.9.5-.1.9-.3 1.3-.4s.7-.2.9-.2c.4 0 .9.2 1.4.6.5.4.8.8.8 1.2 0 .3-.2.6-.5.9-.3.3-.9.4-1.6.6-2 .4-3.8.6-5.5.8-1.7.2-2.9.3-3.6.3v4.3c.1.1.2.1.5.1h1.1c1.3 0 2.6-.1 3.9-.4 1.3-.3 2.6-.6 4-.9.4 0 .9.2 1.4.6s.7.8.7 1.2c0 .8-.6 1.3-1.8 1.4-1.9.1-3.5.3-5 .4s-2.9.3-4 .4l-1.5.2c-.7 0-1.2-.2-1.6-.6-.4-.4-.5-1.2-.5-2.4.3-.4.5-1.1.6-2.1 0-.3.1-.8.1-1.4-.3-.3-.6-.5-.9-.7-.5-.5-1-.8-1.4-1z"/>
  <path id="lae" d="M329 178.3c-.2-.3-.5-.8-1-1.4-1-1.2-1.6-2-1.6-2.2 0-.4.3-.5.9-.5.8 0 1.8.3 3 1 1.2.6 1.8 1.3 1.8 2 0 .1 0 .4-.1.7-.1.4-.1.7-.1.9v7.3h3.9v-9.7c-.2-.6-.9-1.6-2.1-3.1-.5-.6-.8-1-.8-1.3 0-.4.3-.6.8-.6.9 0 2 .4 3.4 1.1 1.3.7 2 1.5 2 2.3l-.1 1.4v14.5c0 1.4 0 2.7-.1 3.9 0 1.2-.1 2.5-.3 3.7-.2 1.3-.5 2.9-1 5-.6 2.5-1.1 3.8-1.5 3.8-.1 0-.2-.3-.2-.9 0-.6-.1-1-.1-1.2v-16.5h-3.9c-.1 1.7-.2 3.1-.2 4-.3 2.9-.7 4.9-1.1 6.1-.3.7-.5 1.2-.7 1.4-.2.3-.3.4-.4.4-.2 0-.2-.4-.2-1.2 0-1.2 0-2.3-.1-3.2s-.2-1.8-.3-2.6c-1.9.3-3.7.6-5.3 1-2.2.5-3.9 1-5.1 1.6-.5.3-.9.4-1.3.4-.6 0-1-.3-1.4-.8-.3-.5-.5-1.2-.5-1.8 0-.4.1-.8.2-1 .3-.4.5-1 .6-1.7.1-.7.1-1.4.1-2.1v-.6c-.1-.2-.6-.6-1.5-1-.9-.5-1.3-.9-1.3-1.2 0-.4.5-.6 1.6-.6 1.3 0 2.5-.1 3.8-.3s2.3-.4 3-.8v-4.1c-.8 0-1.5.1-2.3.4-.7.3-1.5.5-2.3.8-.5 0-1.3-.3-2.3-.8-1.1-.5-1.6-1-1.6-1.4 0-.2.3-.3.8-.3h2.7c1 0 1.6 0 1.9-.1.3-.1.9-.2 1.7-.5.7-.3 1.3-.6 2-.9.3 0 .9.3 1.7 1s1.3 1.1 1.3 1.4c0 .1-.1.2-.2.4-.4.5-.5.8-.6.9-.1.2-.2.5-.3.9-.3 1.2-.5 1.9-.6 2.2.4.3.6.5.7.7.2.3.4.6.4.9 0 .7-.9 1.2-2.8 1.5-.4.1-1.7.2-3.8.4v3.5c0 .5.1.8.2 1 .1.2.3.3.6.3 1 0 2.6-.2 4.9-.6l5.1-.9v-12.9z"/>
  <path id="exclamation-mark" d="M348.7 180.4l-1.5 15.4H346l-1.5-16.6c0-.8.2-1.4.5-1.7.3-.3.9-.4 1.7-.4.7 0 1.2.1 1.5.4.3.3.5.8.5 1.7v1.2zm0 19.6c0 .6-.2 1.1-.6 1.5-.4.4-.9.6-1.5.6s-1.1-.2-1.5-.6c-.4-.4-.6-.9-.6-1.5s.2-1.1.6-1.5c.4-.4.9-.6 1.6-.6.6 0 1.1.2 1.5.6s.5.9.5 1.5z"/>
</svg>
